<svg width="512" height="512" viewBox="0 0 512 512" fill="none" xmlns="http://www.w3.org/2000/svg">
  <rect width="512" height="512" rx="64" fill="#2196F3"/>
  <g transform="translate(64, 64)">
    <!-- Terminal Window -->
    <rect x="32" y="48" width="320" height="240" rx="12" fill="#1E1E1E" stroke="#424242" stroke-width="4"/>
    
    <!-- Terminal Title Bar -->
    <rect x="32" y="48" width="320" height="32" rx="12" fill="#2D2D2D"/>
    <circle cx="56" cy="64" r="6" fill="#FF5F56"/>
    <circle cx="76" cy="64" r="6" fill="#FFBD2E"/>
    <circle cx="96" cy="64" r="6" fill="#27CA40"/>
    
    <!-- Terminal Content -->
    <text x="52" y="120" font-family="monospace" font-size="16" fill="#4EC9B0">user@hpcc</text>
    <text x="148" y="120" font-family="monospace" font-size="16" fill="#FFFFFF">:~$</text>
    <text x="180" y="120" font-family="monospace" font-size="16" fill="#CE9178">ssh connect</text>
    
    <text x="52" y="150" font-family="monospace" font-size="16" fill="#6A9955"># Connected to HPCC</text>
    
    <rect x="52" y="165" width="12" height="20" fill="#FFFFFF">
      <animate attributeName="opacity" values="1;0;1" dur="1s" repeatCount="indefinite"/>
    </rect>
    
    <!-- Connection Icon -->
    <g transform="translate(280, 280)">
      <circle cx="48" cy="48" r="40" fill="#03A9F4"/>
      <path d="M32 48 L48 48 M48 32 L48 64" stroke="#FFFFFF" stroke-width="4" stroke-linecap="round"/>
      <circle cx="48" cy="48" r="8" fill="#FFFFFF"/>
      <path d="M64 32 L80 16 M64 64 L80 80 M16 32 L0 16 M16 64 L0 80" stroke="#FFFFFF" stroke-width="3" stroke-linecap="round"/>
    </g>
  </g>
</svg>
